<!--?xml version="1.0" standalone="no"?-->
              <svg id="sw-js-blob-svg" viewBox="0 0 100 100" xmlns="http://www.w3.org/2000/svg" version="1.1">
                    <defs> 
                        <linearGradient id="sw-gradient" x1="0" x2="1" y1="1" y2="0">
                            <stop id="stop1" stop-color="rgba(179.453, 55, 248, 1)" offset="0%"></stop>
                            <stop id="stop2" stop-color="rgba(251, 168, 31, 1)" offset="100%"></stop>
                        </linearGradient>
                    </defs>
                <path fill="url(#sw-gradient)" d="M16.6,-20.1C21.3,-15.9,24.6,-10.4,25.3,-4.7C26.1,1,24.2,7,21.8,13.8C19.3,20.7,16.3,28.6,11,30.8C5.6,33,-2,29.7,-10.7,27.3C-19.4,25,-29.3,23.8,-35.3,18.1C-41.3,12.4,-43.4,2.2,-39.9,-5.2C-36.4,-12.5,-27.2,-17.1,-19.7,-20.8C-12.1,-24.5,-6,-27.5,0,-27.4C6,-27.4,11.9,-24.4,16.6,-20.1Z" width="100%" height="100%" transform="translate(50 50)" stroke-width="0" style="transition: all 0.3s ease 0s;"></path>
              </svg>