<!--?xml version="1.0" standalone="no"?-->
              <svg id="sw-js-blob-svg" viewBox="0 0 100 100" xmlns="http://www.w3.org/2000/svg" version="1.1">
                    <defs> 
                        <linearGradient id="sw-gradient" x1="0" x2="1" y1="1" y2="0">
                            <stop id="stop1" stop-color="rgba(248, 117, 55, 1)" offset="0%"></stop>
                            <stop id="stop2" stop-color="rgba(67.77, 31, 251, 1)" offset="100%"></stop>
                        </linearGradient>
                    </defs>
                <path fill="url(#sw-gradient)" d="M10.6,-16.4C13.9,-9.9,16.8,-6.7,18.2,-2.6C19.6,1.5,19.6,6.4,19.1,14.7C18.7,23,17.8,34.8,12.9,37.6C7.9,40.3,-1.1,34.1,-7.2,28.2C-13.3,22.3,-16.4,16.8,-22.1,10.9C-27.7,4.9,-35.9,-1.4,-35.3,-6.5C-34.8,-11.7,-25.6,-15.6,-18.2,-21.4C-10.9,-27.2,-5.5,-34.8,-0.9,-33.8C3.7,-32.7,7.4,-22.9,10.6,-16.4Z" width="100%" height="100%" transform="translate(50 50)" stroke-width="0" style="transition: all 0.3s ease 0s;" stroke="url(#sw-gradient)"></path>
              </svg>